<?xml version="1.0" ?>

<!-- Uploaded to: SVG Repo, www.svgrepo.com, Generator: SVG Repo Mixer Tools -->
<svg width="800px" height="800px" viewBox="0 0 256 256" xmlns="http://www.w3.org/2000/svg">

<g>



</g>

<g>


</g>

<g>


<path d="m185.83 129.76c-5.28-.77-14 4.47-18.33 4.71s-14.72-4-19.17-4-13.29 3.91-16.25 3.94-10.87-1.93-15.77-1.93-10.7 2-15.56 1.94-10.27-4.13-16.5-4.08-10.25 3.48-17.43 3.66-13.7-3.24-18.77-4.54-13.79-3.15-13.15 23.51 28.76 73 82.13 72c54.85-1.09 80.5-52 80.5-71.73s-6.41-22.71-11.7-23.48z" fill="#e83a2a"/>

<g opacity=".2">


</g>

</g>

<g>

<path d="m79.15 104.12a7.74 7.74 0 0 0 -9.76-2.12c-3.25 1.78-4 5.89-1.61 9.14s6.75 4.22 9.76 2.16a6.5 6.5 0 0 0 1.61-9.18z" fill="#e83a2a"/>

<path d="m171 108.27a5.46 5.46 0 0 0 -6.88-1.52c-2.29 1.25-2.8 4.16-1.13 6.45a5.11 5.11 0 0 0 6.88 1.52 4.58 4.58 0 0 0  1.13-6.45z" fill="#e83a2a"/>




</g>

<g>

<path d="m174.45 8.46c-4 3.93-3.73 14.23-6.24 22.21s11.09 16.76 15.79 13.65 17.15-12.14 19.83-17-25.42-22.78-29.38-18.86z" fill="#e83a2a"/>

</g>

</svg>